<?xml version="1.0" encoding="UTF-8"?>
<svg width="32px" height="32px" viewBox="0 0 32 32" version="1.1" xmlns="http://www.w3.org/2000/svg" xmlns:xlink="http://www.w3.org/1999/xlink">
    <title>572C13D9-78B5-4CFA-904C-23442A88C354</title>
    <g id="5.0---Interface" stroke="none" stroke-width="1" fill="none" fill-rule="evenodd">
        <g id="Home-Page-UI-Breakdown-1.0" transform="translate(-1855.000000, -2245.000000)" fill="#2F2D2D" fill-rule="nonzero">
            <g id="Group-6" transform="translate(644.000000, 280.000000)">
                <path d="M1242.48387,1980.48387 L1227.51613,1980.48387 L1227.51613,1965.51613 C1227.51613,1965.2311 1227.28503,1965 1227,1965 C1226.71497,1965 1226.48387,1965.2311 1226.48387,1965.51613 L1226.48387,1980.48387 L1211.51613,1980.48387 C1211.2311,1980.48387 1211,1980.71497 1211,1981 C1211,1981.28503 1211.2311,1981.51613 1211.51613,1981.51613 L1226.48387,1981.51613 L1226.48387,1996.48387 C1226.48387,1996.7689 1226.71497,1997 1227,1997 C1227.28503,1997 1227.51613,1996.7689 1227.51613,1996.48387 L1227.51613,1981.51613 L1242.48387,1981.51613 C1242.7689,1981.51613 1243,1981.28503 1243,1981 C1243,1980.71497 1242.7689,1980.48387 1242.48387,1980.48387 Z" id="Path"></path>
            </g>
        </g>
    </g>
</svg>