<?xml version="1.0" encoding="UTF-8"?>
<svg width="30px" height="30px" viewBox="0 0 30 30" version="1.1" xmlns="http://www.w3.org/2000/svg" xmlns:xlink="http://www.w3.org/1999/xlink">
    <title>11589122-80F9-4D15-990D-A6597BCEDBD4</title>
    <g id="5.0---Interface" stroke="none" stroke-width="1" fill="none" fill-rule="evenodd">
        <g id="Home-Page-UI-Breakdown-1.0" transform="translate(-913.000000, -2676.000000)">
            <g id="Group-6" transform="translate(644.000000, 280.000000)">
                <g id="Group-13" transform="translate(269.000000, 2396.000000)">
                    <circle id="Oval" fill="#FFFFFF" cx="15" cy="15" r="15"></circle>
                    <path d="M16,21 L16,15 L17.75,15 L18,13 L16,13 L16,11.8125 C16,11.5208333 16.0572917,11.3125 16.171875,11.1875 C16.2864583,11.0625 16.5416667,11 16.9375,11 L16.9375,11 L18,11 L18,9 L16.25,9 C15.2291667,9 14.5,9.22395833 14.0625,9.671875 C13.625,10.1197917 13.40625,10.78125 13.40625,11.65625 L13.40625,11.65625 L13.40625,13 L12,13 L12,15 L13.40625,15 L13.40625,21 L16,21 Z" id="" fill="#2F2D2D" fill-rule="nonzero"></path>
                </g>
            </g>
        </g>
    </g>
</svg>