<?xml version="1.0" encoding="UTF-8"?>
<svg width="284px" height="97px" viewBox="0 0 284 97" version="1.1" xmlns="http://www.w3.org/2000/svg" xmlns:xlink="http://www.w3.org/1999/xlink">
    <title>04A36FC9-69DC-4C98-9DC0-106CB8F059B8</title>
    <g id="5.0---Interface" stroke="none" stroke-width="1" fill="none" fill-rule="evenodd">
        <g id="Home-Page-1.0-B" transform="translate(-170.000000, -31.000000)" fill="#FFFFFF">
            <g id="Group-5" transform="translate(170.000000, 31.000000)">
                <g id="Group-3">
                    <path d="M0.034153241,30.8437439 C5.13655453,33.817824 10.6024016,35.6101059 16.3773262,36.5189293 C16.3995281,36.4688896 16.4215551,36.4186774 16.4437569,36.3684652 C16.2229623,36.2782213 16.0042655,36.1828009 15.781373,36.0982512 C12.1874728,34.7352749 8.93271872,32.8474001 6.25556199,30.0746864 C-2.26155148,21.2532155 0.483609291,7.84207434 9.41836201,2.08682554 C10.8787882,1.14608031 12.4493496,0.44328219 14.2791654,0 C14.0664124,0.351657884 13.9160692,0.599785478 13.7660757,0.848085622 C12.6360548,2.71939561 11.7670365,4.68664366 11.5273615,6.87837989 C11.1859428,10.0011985 12.2897411,12.6658956 14.2253216,15.05641 C16.3192868,17.6422516 18.9350825,19.6535 21.6839145,21.4909901 C25.2388304,23.8673553 28.8669948,26.1363942 32.4268056,28.5055123 C35.8095262,30.7566059 39.0857828,33.1628224 41.654203,36.3337826 C42.7302053,37.6624213 43.5480021,39.1948421 44.4815281,40.6358112 C44.5416653,40.7284708 44.5869431,40.8306207 44.7024975,40.8975703 C43.9086508,37.5799422 42.4922786,34.5477125 40.3458681,31.7429044 C46.7160466,32.6203236 53.0371014,32.00104 59.3826306,32.421718 C59.4632216,31.2930653 59.4941643,30.19806 60.2492015,29.2314322 C60.306192,29.3927669 60.3624833,29.4928462 60.3748953,29.5979294 C60.5383498,30.9612508 61.312617,31.8833605 62.5837157,32.3275055 C63.7154849,32.7229912 64.9052935,32.9535186 66.0552436,33.3027608 C66.8522371,33.5448491 67.652552,33.8079886 68.4014706,34.1639603 C69.4493273,34.6621135 70.1585623,35.5101991 70.6618622,36.5494707 C70.8851043,37.0105256 71.230369,37.4148114 71.5245871,37.8418738 C71.9590088,38.4716831 72.4944751,39.0547311 72.8115942,39.7371683 C73.2981116,40.7840321 72.8138669,41.6693886 71.6876919,42.0605606 C70.6277728,40.3438558 69.3000331,39.8303456 67.0971565,40.265863 C64.9594869,40.6889568 63.1141123,41.7001026 61.4351641,43.025808 C57.8928351,45.8223336 55.5443354,49.4736744 53.778328,53.5348226 C53.6896955,53.7386047 53.5986155,53.9411789 53.5056126,54.1428905 C53.5012421,54.1523807 53.4669779,54.1484121 53.422749,54.1532435 C53.3349906,52.9747237 53.2940833,51.7908548 53.1454883,50.6206175 C52.9982919,49.461941 52.7944546,48.3044723 52.5192917,47.1694352 C52.242031,46.025253 51.8462439,44.909369 51.5023777,43.7810614 C51.4364715,43.7953831 51.3705652,43.8097048 51.3044842,43.8240265 C51.3719638,44.42571 51.4544777,45.0258406 51.5046503,45.6290771 C52.2297937,54.3402882 50.8412175,62.5761227 45.7765768,69.9498951 C44.8297647,71.3282283 43.6937999,72.5802546 42.5574855,74 C42.4389592,73.695966 42.3809198,73.5770788 42.3459563,73.4523248 C40.776269,67.857893 37.5409197,63.3415567 33.1259012,59.5937602 C28.5902586,55.7436413 23.3600656,53.0744579 17.8529616,50.8813412 C17.0070192,50.5445227 16.1537345,50.2258219 15.3212531,49.8324068 C21.1762442,49.9528471 26.8202304,51.0733899 32.2269891,53.3401856 C32.2516384,53.2973931 32.2764625,53.2546006 32.3012866,53.211808 C31.8726338,52.8251224 31.4614628,52.416868 31.0120068,52.0552022 C28.4694596,50.0092711 25.5414396,48.6126475 22.6099233,47.2227533 C18.8539672,45.4420324 15.0728373,43.7099706 11.353418,41.8576412 C8.77415916,40.5731754 6.37898322,38.9796717 4.24935521,37.0301963 C2.53666719,35.4620575 1.11732309,33.6801287 0.198481785,31.5401576 C0.126981387,31.3734739 0.0633477802,31.2033391 0.00303570814,31.0325141 C-0.00815261826,31.0011099 0.0136995817,30.95849 0.034153241,30.8437439" id="Fill-1"></path>
                </g>
                <path d="M81.137746,87.9638554 L81.137746,81.313253 L71.763864,81.313253 L71.763864,62.0843373 L64,62.0843373 L64,87.9638554 L81.137746,87.9638554 Z M93.9463327,88.686747 C98.6690519,88.686747 102.604651,86.1927711 103.391771,82.7228916 L97.4168157,81.746988 C96.9516995,82.8313253 95.842576,83.6626506 94.3041145,83.6626506 C92.4078712,83.6626506 91.1556351,82.4698795 90.6905188,80.5180723 L104.107335,80.5180723 C104.143113,80.1566265 104.178891,79.1807229 104.178891,78.6385542 C104.178891,72.6385542 100.171735,68.5903614 94.0536673,68.5903614 C87.9355993,68.5903614 83.6064401,72.6385542 83.6064401,78.5662651 C83.6064401,84.6024096 87.8640429,88.686747 93.9463327,88.686747 Z M97.273703,76.8674699 L90.6547406,76.8674699 C91.0125224,74.8795181 92.157424,73.5783133 93.9105546,73.5783133 C95.7710197,73.5783133 97.1305903,75.0963855 97.273703,76.8674699 Z M117.273703,97 C123.320215,97 127.398927,93.4578313 127.398927,87.8554217 L127.398927,69.313253 L120.529517,69.313253 L120.529517,71.2650602 C119.205725,69.5662651 117.309481,68.5903614 114.9839,68.5903614 C110.225403,68.5903614 106.754919,72.6746988 106.754919,78.6385542 C106.754919,84.2409639 110.225403,88.0722892 114.9839,88.0722892 C117.309481,88.0722892 119.169946,87.1686747 120.529517,85.5783133 L120.529517,87.6024096 C120.529517,90.1686747 119.062612,91.7228916 116.987478,91.7228916 C115.341682,91.7228916 113.910555,90.6024096 113.516995,89.0843373 L107.506261,89.8072289 C108.078712,94 112.121646,97 117.273703,97 Z M117.237925,82.5421687 C115.127013,82.5421687 113.660107,80.8795181 113.660107,78.6385542 C113.660107,76.3253012 115.127013,74.6626506 117.237925,74.6626506 C119.313059,74.6626506 120.815742,76.3253012 120.815742,78.6385542 C120.815742,80.8795181 119.313059,82.5421687 117.237925,82.5421687 Z M139.134168,88.686747 C141.531306,88.686747 143.499106,87.5301205 144.822898,85.5783133 L144.822898,87.9638554 L151.692308,87.9638554 L151.692308,69.313253 L144.822898,69.313253 L144.822898,71.6987952 C143.499106,69.746988 141.531306,68.5903614 139.134168,68.5903614 C134.125224,68.5903614 130.726297,72.6746988 130.726297,78.6385542 C130.726297,84.6024096 134.125224,88.686747 139.134168,88.686747 Z M141.209302,82.6144578 C139.09839,82.6144578 137.631485,80.9156627 137.631485,78.6385542 C137.631485,76.3253012 139.09839,74.6626506 141.209302,74.6626506 C143.284436,74.6626506 144.78712,76.3253012 144.78712,78.6385542 C144.78712,80.9156627 143.284436,82.6144578 141.209302,82.6144578 Z M162.676208,87.9638554 L162.676208,61 L155.806798,61 L155.806798,87.9638554 L162.676208,87.9638554 Z M185.681574,87.9638554 L185.681574,85.2891566 L171.012522,85.2891566 L171.012522,76.0361446 L183.892665,76.0361446 L183.892665,73.5060241 L171.012522,73.5060241 L171.012522,65.1566265 L185.323792,65.1566265 L185.323792,62.4819277 L168.11449,62.4819277 L168.11449,87.9638554 L185.681574,87.9638554 Z M198.919499,88.686747 C202.0322,88.686747 204.644007,87.1686747 206.182469,84.746988 L206.182469,87.9638554 L208.90161,87.9638554 L208.90161,69.7108434 L206.182469,69.7108434 L206.182469,72.9638554 C204.644007,70.5060241 202.0322,68.9879518 198.919499,68.9879518 C193.516995,68.9879518 189.617174,73.1445783 189.617174,78.8554217 C189.617174,84.5301205 193.516995,88.686747 198.919499,88.686747 Z M199.241503,86.1927711 C195.234347,86.1927711 192.336315,83.0843373 192.336315,78.8554217 C192.336315,74.5903614 195.234347,71.5180723 199.241503,71.5180723 C203.21288,71.5180723 206.146691,74.5903614 206.146691,78.8554217 C206.146691,83.0843373 203.21288,86.1927711 199.241503,86.1927711 Z M223.463327,97 C228.830054,97 232.729875,93.5301205 232.729875,87.6746988 L232.729875,69.7108434 L230.010733,69.7108434 L230.010733,72.746988 C228.472272,70.4698795 226.003578,69.060241 222.890877,69.060241 C217.488372,69.060241 213.552773,73.1807229 213.552773,78.8554217 C213.552773,84.4216867 217.488372,88.4698795 222.890877,88.4698795 C225.932021,88.4698795 228.436494,87.0963855 230.010733,84.7831325 L230.010733,87.6746988 C230.010733,91.9759036 227.220036,94.5060241 223.355993,94.5060241 C220.386404,94.5060241 217.810376,92.6626506 217.023256,90.0240964 L214.411449,90.6746988 C215.413238,94.3975904 219.09839,97 223.463327,97 Z M223.177102,85.9759036 C219.205725,85.9759036 216.271914,82.9759036 216.271914,78.8554217 C216.271914,74.5903614 219.169946,71.5180723 223.177102,71.5180723 C227.184258,71.5180723 230.08229,74.5903614 230.08229,78.8554217 C230.08229,82.9759036 227.184258,85.9759036 223.177102,85.9759036 Z M241.101968,87.9638554 L241.101968,61.3975904 L238.347048,61.3975904 L238.347048,87.9638554 L241.101968,87.9638554 Z M255.449016,88.686747 C259.205725,88.686747 262.783542,86.4819277 263.928444,83.4457831 L261.495528,82.5421687 C260.601073,84.6024096 257.989267,86.1927711 255.270125,86.1927711 C251.692308,86.1927711 248.937388,83.5542169 248.50805,79.7228916 L264.751342,79.7590361 C264.78712,79.3614458 264.78712,79 264.78712,78.6746988 C264.78712,73.0722892 260.815742,68.9879518 255.305903,68.9879518 C249.724508,68.9879518 245.717352,73.0722892 245.717352,78.6385542 C245.717352,84.4578313 249.796064,88.686747 255.449016,88.686747 Z M261.924866,77.373494 L248.579606,77.3373494 C249.080501,73.9036145 251.692308,71.5180723 255.198569,71.5180723 C258.776386,71.5180723 261.423971,73.9036145 261.924866,77.373494 Z M276.55814,88.686747 C280.887299,88.686747 284,86.1566265 284,82.7951807 C284,79.3990809 280.831918,78.4840802 277.696498,77.8323749 L277.312949,77.7537393 L277.312949,77.7537393 L276.931033,77.6768308 C274.139495,77.1169554 271.584973,76.6234008 271.584973,74.5903614 C271.584973,72.8192771 273.481216,71.5180723 275.806798,71.5180723 C278.776386,71.5180723 280.923077,73.0361446 280.923077,75.1325301 L283.60644,75.1686747 C283.60644,71.5903614 280.314848,68.9879518 275.878354,68.9879518 C271.978533,68.9879518 268.937388,71.3373494 268.937388,74.5180723 C268.937388,81.746988 281.316637,78.3855422 281.352415,82.9759036 C281.352415,84.8192771 279.348837,86.1927711 276.55814,86.1927711 C273.481216,86.1927711 271.227191,84.3855422 271.227191,81.8554217 L268.579606,81.8554217 C268.543828,85.7951807 271.906977,88.686747 276.55814,88.686747 Z" id="LegalEagles" fill-rule="nonzero"></path>
            </g>
        </g>
    </g>
</svg>