<?xml version="1.0" encoding="UTF-8"?>
<svg width="30px" height="30px" viewBox="0 0 30 30" version="1.1" xmlns="http://www.w3.org/2000/svg" xmlns:xlink="http://www.w3.org/1999/xlink">
    <title>DE7E3590-8FA9-47DD-BF16-6588365D89EA</title>
    <g id="5.0---Interface" stroke="none" stroke-width="1" fill="none" fill-rule="evenodd">
        <g id="Home-Page-UI-Breakdown-1.0" transform="translate(-955.000000, -2676.000000)">
            <g id="Group-6" transform="translate(644.000000, 280.000000)">
                <g id="Group-7" transform="translate(311.000000, 2396.000000)">
                    <circle id="Oval" fill="#FFFFFF" cx="15" cy="15" r="15"></circle>
                    <path d="M10.359375,10.765625 C10.765625,10.765625 11.1015625,10.6328125 11.3671875,10.3671875 C11.6328125,10.1015625 11.765625,9.78125 11.765625,9.40625 C11.765625,9 11.640625,8.6640625 11.390625,8.3984375 C11.140625,8.1328125 10.8125,8 10.40625,8 C10,8 9.6640625,8.1328125 9.3984375,8.3984375 C9.1328125,8.6640625 9,9 9,9.40625 C9,9.78125 9.125,10.1015625 9.375,10.3671875 C9.625,10.6328125 9.953125,10.765625 10.359375,10.765625 Z M15.703125,20 L15.703125,15.453125 C15.703125,15.140625 15.734375,14.921875 15.796875,14.796875 C16.046875,14.171875 16.484375,13.859375 17.109375,13.859375 C17.984375,13.859375 18.421875,14.4375 18.421875,15.59375 L18.421875,15.59375 L18.421875,20 L21,20 L21,15.3125 C21,14.15625 20.7265625,13.28125 20.1796875,12.6875 C19.6328125,12.09375 18.921875,11.796875 18.046875,11.796875 C17.109375,11.796875 16.328125,12.234375 15.703125,13.109375 L15.703125,13.109375 L15.703125,11.984375 L13.125,11.984375 L13.125,20 L15.703125,20 Z M11.578125,20 L11.578125,11.984375 L9,11.984375 L9,20 L11.578125,20 Z" id="" fill="#2F2D2D" fill-rule="nonzero"></path>
                </g>
            </g>
        </g>
    </g>
</svg>