<?xml version="1.0" encoding="UTF-8"?>
<svg width="65px" height="66px" viewBox="0 0 65 66" version="1.1" xmlns="http://www.w3.org/2000/svg" xmlns:xlink="http://www.w3.org/1999/xlink">
    <title>D345C580-8134-4B18-B167-45546A9398FE</title>
    <g id="5.0---Interface" stroke="none" stroke-width="1" fill="none" fill-rule="evenodd">
        <g id="Home-Page-UI-Breakdown-1.0" transform="translate(-814.000000, -2565.000000)" fill="#2F2D2D">
            <g id="Group-6" transform="translate(644.000000, 280.000000)">
                <g id="Group-3" transform="translate(170.000000, 2285.000000)">
                    <path d="M0.03041042,27.5092851 C4.57364445,30.161843 9.44049459,31.7603647 14.5825507,32.5709369 C14.6023195,32.526307 14.6219326,32.4815231 14.6417014,32.4367393 C14.4451034,32.3562515 14.2503734,32.2711468 14.0519075,32.1957375 C10.8518593,30.9801101 7.95379064,29.2963298 5.57002095,26.8233689 C-2.01371022,18.9555706 0.430611012,6.99428252 8.38621275,1.86122278 C9.68659227,1.02217973 11.0850373,0.395359791 12.7143253,0 C12.5248877,0.313640815 12.3910205,0.534943805 12.2574647,0.75640069 C11.2512816,2.42540689 10.4774982,4.17997948 10.264089,6.13477125 C9.96008602,8.91998787 10.9429202,11.2966096 12.6663822,13.42869 C14.5308718,15.7349811 16.860005,17.5287973 19.3075951,19.1676398 C22.4729311,21.2871007 25.7034886,23.310838 28.8731831,25.4238353 C31.8851945,27.4315674 34.8024094,29.5776524 37.0893588,32.4058061 C38.0474431,33.5908082 38.7756183,34.9575619 39.60684,36.2427505 C39.6603869,36.3253929 39.7007027,36.4164996 39.8035937,36.4762114 C39.0967438,33.5172457 37.8355905,30.8128247 35.9244031,28.3112391 C41.5964799,29.0938022 47.2248163,28.5414681 52.8749451,28.9166674 C52.9467041,27.9100312 52.9742559,26.9334048 53.6465493,26.0712773 C53.6972943,26.2151705 53.7474166,26.3044304 53.7584685,26.3981532 C53.9040101,27.6140885 54.5934261,28.4365107 55.7252263,28.83264 C56.732966,29.1853705 57.7923846,29.3909761 58.8163128,29.7024623 C59.5259645,29.918379 60.2385737,30.1530709 60.9054191,30.4705592 C61.8384421,30.914858 62.4699528,31.6712587 62.9180965,32.5981766 C63.1168737,33.0093877 63.4243012,33.3699669 63.6862761,33.7508604 C64.07309,34.3125822 64.5498751,34.8325981 64.8322414,35.4412582 C65.2654418,36.3749475 64.834265,37.1645898 63.8315065,37.5134729 C62.8877429,35.9823579 61.7055089,35.5243623 59.7440435,35.9127967 C57.840639,36.2901506 56.1974973,37.1919834 54.7025434,38.3743693 C51.5484148,40.8685678 49.457285,44.1251691 47.8848126,47.7472742 C47.8058933,47.9290258 47.7247947,48.1097001 47.6419838,48.289605 C47.6380923,48.2980693 47.607583,48.2945297 47.5682012,48.2988388 C47.4900601,47.2477265 47.4536358,46.1918435 47.3213252,45.1481183 C47.1902599,44.1147041 47.0087609,43.0823672 46.7637529,42.0700368 C46.5168769,41.04955 46.1644638,40.0543021 45.8582815,39.0479737 C45.7995979,39.0607471 45.7409142,39.0735205 45.6820749,39.0862939 C45.7421595,39.6229306 45.8156308,40.1581822 45.8603051,40.6962039 C46.5059807,48.4656625 45.2695772,55.8111365 40.7599657,62.3877443 C39.9169138,63.6170685 38.9054383,64.7337406 37.8936515,66 C37.7881144,65.7288346 37.7364354,65.6228 37.7053035,65.5115329 C36.3076368,60.5219046 33.4268463,56.4938208 29.4956655,53.1511915 C25.4570796,49.7173017 20.8000584,47.3366786 15.8964726,45.3806557 C15.1432363,45.08025 14.3834622,44.7960034 13.6422117,44.4451196 C18.8555599,44.5525393 23.881027,45.5519424 28.6952643,47.5736791 C28.7172123,47.5355128 28.7393159,47.4973465 28.7614196,47.4591802 C28.3797425,47.1142984 28.0136313,46.7501795 27.6134307,46.4276127 C25.3495188,44.6028634 22.7423778,43.3572261 20.1321235,42.1175908 C16.787779,40.5293802 13.4210195,38.9845684 10.1092078,37.3324908 C7.81260747,36.1868862 5.67991656,34.7656531 3.78367245,33.0269319 C2.25867626,31.6283216 0.994876725,30.0390337 0.176730357,28.1304109 C0.113065618,27.981747 0.0564055577,27.8300051 0.0027030278,27.6776477 C-0.00725918064,27.6496386 0.0121982577,27.6116262 0.03041042,27.5092851" id="Fill-1"></path>
                </g>
            </g>
        </g>
    </g>
</svg>